# xmcd
#
# Track frame offsets:
#	150
#	11013
#	26527
#	42965
#	56646
#	70258
#	83733
#	94384
#	105821
#	117146
#
# Disc length: 1783 seconds
#
# Revision: 0
# Processed by: cddbd v1.5.2PL0 Copyright (c) Steve Scherf et al.
# Submitted via: audiograbber 1.82.02
#
DISCID=7506f50a
DTITLE=Banda Black Rio - Latin Essentials, Vol.19
DYEAR=2001
DGENRE=Soul
TTITLE0=Maria Fumaca
TTITLE1=Na Baixa Do Sapeteiro
TTITLE2=Mr. Funky Samba
TTITLE3=Caminho Da Roca
TTITLE4=Metalurgica
TTITLE5=Baiao
TTITLE6=Casa Forte
TTITLE7=Lebion Via Vaz Lobo
TTITLE8=Urubu Malandro
TTITLE9=Junia
EXTD=
EXTT0=
EXTT1=
EXTT2=
EXTT3=
EXTT4=
EXTT5=
EXTT6=
EXTT7=
EXTT8=
EXTT9=
PLAYORDER=
